<?xml version="1.0" encoding="iso-8859-1"?>
<!-- Generator: Adobe Illustrator 19.0.0, SVG Export Plug-In . SVG Version: 6.00 Build 0)  -->
<svg version="1.1" width="20px" height="20px" id="Layer_1" xmlns="http://www.w3.org/2000/svg" xmlns:xlink="http://www.w3.org/1999/xlink" x="0px" y="0px"
	 viewBox="0 0 269.957 269.957" style="enable-background:new 0 0 269.957 269.957;" xml:space="preserve">
<g id="XMLID_224_">
	<path id="XMLID_225_" d="M239.961,44.991C239.961,23.754,195.064,0,134.978,0S29.996,23.754,29.996,44.991
		c0,21.238,44.896,44.992,104.982,44.992S239.961,66.229,239.961,44.991z"/>
	<path id="XMLID_226_" d="M29.996,224.966c0,21.237,44.896,44.991,104.982,44.991s104.983-23.754,104.983-44.991v-11.967
		c-4.092,2.767-8.569,5.379-13.436,7.812c-24.705,12.353-57.217,19.155-91.548,19.155c-34.333,0-66.847-6.803-91.55-19.155
		c-4.865-2.432-9.342-5.045-13.433-7.811V224.966z"/>
	<path id="XMLID_227_" d="M29.996,164.974c0,21.238,44.896,44.992,104.982,44.992s104.983-23.754,104.983-44.992v-11.966
		c-4.092,2.766-8.569,5.378-13.436,7.811c-24.705,12.353-57.218,19.155-91.548,19.155c-34.333,0-66.846-6.803-91.55-19.155
		c-4.865-2.432-9.342-5.045-13.433-7.809V164.974z"/>
	<path id="XMLID_228_" d="M29.996,104.983c0,21.237,44.896,44.99,104.982,44.99s104.983-23.753,104.983-44.99V93.016
		c-4.092,2.767-8.569,5.379-13.436,7.813c-24.705,12.353-57.218,19.155-91.548,19.155c-34.333,0-66.846-6.803-91.55-19.155
		c-4.865-2.433-9.342-5.045-13.433-7.811V104.983z"/>
</g>
<g>
</g>
<g>
</g>
<g>
</g>
<g>
</g>
<g>
</g>
<g>
</g>
<g>
</g>
<g>
</g>
<g>
</g>
<g>
</g>
<g>
</g>
<g>
</g>
<g>
</g>
<g>
</g>
<g>
</g>
</svg>
